# xmcd
#
# Track frame offsets:
# 150
# 19300
# 33232
# 46680
# 58589
# 75811
# 94026
# 106736
# 125084
# 140537
#
# Disc length: 2144 seconds
#
#
# Revision: 0
# Processed by: cddbd v1.5.2PL0 Copyright (c) Steve Scherf et al.
# Submitted via: FreeRIP 2.945 
#
DISCID=73085e0a
DTITLE=Bill Anderson - Love And Other Sad Stories
DYEAR=1900
DGENRE=Country
TTITLE0=I Can't Wait Any Longer
TTITLE1=How Married Are You
TTITLE2=Smooth Southern Highway
TTITLE3=All That Keeps Me Going
TTITLE4=Joanna
TTITLE5=Ride Off In The Sunset
TTITLE6=Whiskey Can't Sing
TTITLE7=On His Way To The River
TTITLE8=Summer Sun
TTITLE9=I Wonder If God Likes Country Music
EXTD=
EXTT0=
EXTT1=
EXTT2=
EXTT3=
EXTT4=
EXTT5=
EXTT6=
EXTT7=
EXTT8=
EXTT9=
PLAYORDER=
